<svg width="76" height="86" viewBox="0 0 76 86" fill="none" xmlns="http://www.w3.org/2000/svg">
<rect x="17" width="41.6667" height="50" rx="4" fill="#232323"/>
<path d="M38.772 35.252C36.756 35.252 34.956 34.832 33.372 33.992C31.812 33.128 30.588 31.952 29.7 30.464C28.812 28.976 28.368 27.284 28.368 25.388C28.368 23.468 28.812 21.776 29.7 20.312C30.588 18.824 31.812 17.66 33.372 16.82C34.956 15.98 36.756 15.56 38.772 15.56C40.644 15.56 42.288 15.944 43.704 16.712C45.144 17.456 46.236 18.56 46.98 20.024L43.524 22.04C42.948 21.128 42.24 20.456 41.4 20.024C40.584 19.592 39.696 19.376 38.736 19.376C37.632 19.376 36.636 19.616 35.748 20.096C34.86 20.576 34.164 21.272 33.66 22.184C33.156 23.072 32.904 24.14 32.904 25.388C32.904 26.636 33.156 27.716 33.66 28.628C34.164 29.516 34.86 30.2 35.748 30.68C36.636 31.16 37.632 31.4 38.736 31.4C39.696 31.4 40.584 31.184 41.4 30.752C42.24 30.32 42.948 29.648 43.524 28.736L46.98 30.752C46.236 32.192 45.144 33.308 43.704 34.1C42.288 34.868 40.644 35.252 38.772 35.252Z" fill="white"/>
<path d="M6.54 81.14C5.42 81.14 4.42 80.9067 3.54 80.44C2.67333 79.96 1.99333 79.3067 1.5 78.48C1.00667 77.6533 0.76 76.7133 0.76 75.66C0.76 74.5933 1.00667 73.6533 1.5 72.84C1.99333 72.0133 2.67333 71.3667 3.54 70.9C4.42 70.4333 5.42 70.2 6.54 70.2C7.58 70.2 8.49333 70.4133 9.28 70.84C10.08 71.2533 10.6867 71.8667 11.1 72.68L9.18 73.8C8.86 73.2933 8.46667 72.92 8 72.68C7.54667 72.44 7.05333 72.32 6.52 72.32C5.90667 72.32 5.35333 72.4533 4.86 72.72C4.36667 72.9867 3.98 73.3733 3.7 73.88C3.42 74.3733 3.28 74.9667 3.28 75.66C3.28 76.3533 3.42 76.9533 3.7 77.46C3.98 77.9533 4.36667 78.3333 4.86 78.6C5.35333 78.8667 5.90667 79 6.52 79C7.05333 79 7.54667 78.88 8 78.64C8.46667 78.4 8.86 78.0267 9.18 77.52L11.1 78.64C10.6867 79.44 10.08 80.06 9.28 80.5C8.49333 80.9267 7.58 81.14 6.54 81.14ZM13.1634 81V66.16H15.6634V81H13.1634ZM23.7447 81.14C22.6514 81.14 21.678 80.9067 20.8247 80.44C19.9714 79.96 19.298 79.3067 18.8047 78.48C18.3114 77.6533 18.0647 76.7133 18.0647 75.66C18.0647 74.5933 18.3114 73.6533 18.8047 72.84C19.298 72.0133 19.9714 71.3667 20.8247 70.9C21.678 70.4333 22.6514 70.2 23.7447 70.2C24.8514 70.2 25.8314 70.4333 26.6847 70.9C27.5514 71.3667 28.2247 72.0067 28.7047 72.82C29.198 73.6333 29.4447 74.58 29.4447 75.66C29.4447 76.7133 29.198 77.6533 28.7047 78.48C28.2247 79.3067 27.5514 79.96 26.6847 80.44C25.8314 80.9067 24.8514 81.14 23.7447 81.14ZM23.7447 79C24.358 79 24.9047 78.8667 25.3847 78.6C25.8647 78.3333 26.238 77.9467 26.5047 77.44C26.7847 76.9333 26.9247 76.34 26.9247 75.66C26.9247 74.9667 26.7847 74.3733 26.5047 73.88C26.238 73.3733 25.8647 72.9867 25.3847 72.72C24.9047 72.4533 24.3647 72.32 23.7647 72.32C23.1514 72.32 22.6047 72.4533 22.1247 72.72C21.658 72.9867 21.2847 73.3733 21.0047 73.88C20.7247 74.3733 20.5847 74.9667 20.5847 75.66C20.5847 76.34 20.7247 76.9333 21.0047 77.44C21.2847 77.9467 21.658 78.3333 22.1247 78.6C22.6047 78.8667 23.1447 79 23.7447 79ZM35.8553 81.14C34.682 81.14 33.7753 80.84 33.1353 80.24C32.4953 79.6267 32.1753 78.7267 32.1753 77.54V67.96H34.6753V77.48C34.6753 77.9867 34.802 78.38 35.0553 78.66C35.322 78.94 35.6886 79.08 36.1553 79.08C36.7153 79.08 37.182 78.9333 37.5553 78.64L38.2553 80.42C37.962 80.66 37.602 80.84 37.1753 80.96C36.7486 81.08 36.3086 81.14 35.8553 81.14ZM30.4153 72.4V70.4H37.5353V72.4H30.4153ZM46.3719 70.2C47.2252 70.2 47.9852 70.3667 48.6519 70.7C49.3319 71.0333 49.8652 71.5467 50.2519 72.24C50.6385 72.92 50.8319 73.8 50.8319 74.88V81H48.3319V75.2C48.3319 74.2533 48.1052 73.5467 47.6519 73.08C47.2119 72.6133 46.5919 72.38 45.7919 72.38C45.2052 72.38 44.6852 72.5 44.2319 72.74C43.7785 72.98 43.4252 73.34 43.1719 73.82C42.9319 74.2867 42.8119 74.88 42.8119 75.6V81H40.3119V66.16H42.8119V73.2L42.2719 72.32C42.6452 71.64 43.1852 71.12 43.8919 70.76C44.6119 70.3867 45.4385 70.2 46.3719 70.2ZM59.0428 81.14C57.8561 81.14 56.8161 80.9067 55.9228 80.44C55.0428 79.96 54.3561 79.3067 53.8628 78.48C53.3828 77.6533 53.1428 76.7133 53.1428 75.66C53.1428 74.5933 53.3761 73.6533 53.8428 72.84C54.3228 72.0133 54.9761 71.3667 55.8028 70.9C56.6428 70.4333 57.5961 70.2 58.6628 70.2C59.7028 70.2 60.6295 70.4267 61.4428 70.88C62.2561 71.3333 62.8961 71.9733 63.3628 72.8C63.8295 73.6267 64.0628 74.6 64.0628 75.72C64.0628 75.8267 64.0561 75.9467 64.0428 76.08C64.0428 76.2133 64.0361 76.34 64.0228 76.46H55.1228V74.8H62.7028L61.7228 75.32C61.7361 74.7067 61.6095 74.1667 61.3428 73.7C61.0761 73.2333 60.7095 72.8667 60.2428 72.6C59.7895 72.3333 59.2628 72.2 58.6628 72.2C58.0495 72.2 57.5095 72.3333 57.0428 72.6C56.5895 72.8667 56.2295 73.24 55.9628 73.72C55.7095 74.1867 55.5828 74.74 55.5828 75.38V75.78C55.5828 76.42 55.7295 76.9867 56.0228 77.48C56.3161 77.9733 56.7295 78.3533 57.2628 78.62C57.7961 78.8867 58.4095 79.02 59.1028 79.02C59.7028 79.02 60.2428 78.9267 60.7228 78.74C61.2028 78.5533 61.6295 78.26 62.0028 77.86L63.3428 79.4C62.8628 79.96 62.2561 80.3933 61.5228 80.7C60.8028 80.9933 59.9761 81.14 59.0428 81.14ZM69.7642 81.14C68.8709 81.14 68.0109 81.0267 67.1842 80.8C66.3709 80.56 65.7242 80.2733 65.2442 79.94L66.2042 78.04C66.6842 78.3467 67.2576 78.6 67.9242 78.8C68.5909 79 69.2576 79.1 69.9242 79.1C70.7109 79.1 71.2776 78.9933 71.6242 78.78C71.9842 78.5667 72.1642 78.28 72.1642 77.92C72.1642 77.6267 72.0442 77.4067 71.8042 77.26C71.5642 77.1 71.2509 76.98 70.8642 76.9C70.4776 76.82 70.0442 76.7467 69.5642 76.68C69.0976 76.6133 68.6242 76.5267 68.1442 76.42C67.6776 76.3 67.2509 76.1333 66.8642 75.92C66.4776 75.6933 66.1642 75.3933 65.9242 75.02C65.6842 74.6467 65.5642 74.1533 65.5642 73.54C65.5642 72.86 65.7576 72.2733 66.1442 71.78C66.5309 71.2733 67.0709 70.8867 67.7642 70.62C68.4709 70.34 69.3042 70.2 70.2642 70.2C70.9842 70.2 71.7109 70.28 72.4442 70.44C73.1776 70.6 73.7842 70.8267 74.2642 71.12L73.3042 73.02C72.7976 72.7133 72.2842 72.5067 71.7642 72.4C71.2576 72.28 70.7509 72.22 70.2442 72.22C69.4842 72.22 68.9176 72.3333 68.5442 72.56C68.1842 72.7867 68.0042 73.0733 68.0042 73.42C68.0042 73.74 68.1242 73.98 68.3642 74.14C68.6042 74.3 68.9176 74.4267 69.3042 74.52C69.6909 74.6133 70.1176 74.6933 70.5842 74.76C71.0642 74.8133 71.5376 74.9 72.0042 75.02C72.4709 75.14 72.8976 75.3067 73.2842 75.52C73.6842 75.72 74.0042 76.0067 74.2442 76.38C74.4842 76.7533 74.6042 77.24 74.6042 77.84C74.6042 78.5067 74.4042 79.0867 74.0042 79.58C73.6176 80.0733 73.0642 80.46 72.3442 80.74C71.6242 81.0067 70.7642 81.14 69.7642 81.14Z" fill="#232323"/>
</svg>
